<?xml version="1.0" standalone="no"?>
<!DOCTYPE svg PUBLIC "-//W3C//DTD SVG 20010904//EN"
 "http://www.w3.org/TR/2001/REC-SVG-20010904/DTD/svg10.dtd">
<svg version="1.0" xmlns="http://www.w3.org/2000/svg"
 width="1280.000000pt" height="927.000000pt" viewBox="0 0 1280.000000 927.000000"
 preserveAspectRatio="xMidYMid meet">
<metadata>
Created by potrace 1.15, written by Peter Selinger 2001-2017
</metadata>
<g transform="translate(0.000000,927.000000) scale(0.100000,-0.100000)"
fill="#000000" stroke="none">
<path d="M3925 8774 c-11 -1 -114 -8 -230 -14 -153 -9 -226 -17 -269 -31 -33
-10 -69 -19 -80 -19 -12 0 -55 -21 -96 -45 -43 -26 -85 -44 -100 -43 -34 2
-65 -16 -126 -73 -34 -32 -66 -51 -95 -58 -102 -26 -119 -33 -144 -62 -27 -33
-163 -99 -204 -99 -55 0 -105 -25 -163 -82 -50 -47 -68 -58 -106 -64 -61 -9
-92 -21 -92 -35 0 -26 -51 -79 -75 -79 -15 0 -40 -15 -62 -35 -25 -23 -47 -35
-66 -35 -21 0 -46 -17 -103 -73 -55 -54 -89 -78 -127 -92 -30 -10 -73 -37
-100 -62 -26 -25 -82 -60 -124 -79 -60 -28 -89 -49 -142 -105 -44 -47 -83 -79
-117 -94 -42 -18 -56 -32 -82 -78 -17 -30 -40 -58 -51 -62 -11 -3 -28 -21 -39
-39 -11 -18 -39 -46 -63 -62 -35 -24 -45 -37 -55 -79 -13 -48 -26 -64 -88
-108 -15 -10 -26 -28 -26 -40 0 -12 -26 -65 -58 -118 -32 -52 -71 -134 -87
-182 -26 -81 -28 -91 -17 -147 7 -39 7 -71 1 -92 -15 -54 -11 -159 7 -179 8
-9 24 -48 34 -86 26 -97 54 -166 82 -205 29 -38 48 -89 48 -128 0 -15 16 -57
35 -93 19 -37 39 -84 44 -104 5 -21 15 -60 22 -87 11 -43 60 -116 78 -116 3 0
61 -53 129 -118 l122 -118 9 -110 c16 -212 101 -498 190 -643 17 -28 31 -55
31 -59 0 -5 -19 -33 -41 -63 -70 -92 -91 -150 -96 -264 -4 -78 0 -122 17 -200
39 -184 51 -259 70 -450 11 -104 26 -221 34 -260 8 -38 24 -131 36 -205 21
-128 54 -310 86 -464 41 -203 159 -446 316 -654 46 -61 47 -64 33 -91 -9 -18
-12 -42 -8 -65 4 -29 0 -44 -22 -76 -26 -37 -27 -45 -22 -103 11 -101 38 -164
189 -439 48 -86 91 -171 96 -190 6 -18 31 -93 56 -167 29 -82 56 -188 71 -275
31 -179 39 -204 75 -254 26 -36 35 -41 82 -47 95 -12 268 11 381 50 56 19 140
47 187 61 88 28 277 101 295 114 6 4 53 21 105 38 114 36 254 90 370 142 47
21 157 68 245 105 179 76 317 142 327 158 4 6 -2 26 -13 44 l-20 32 23 12 c34
19 136 12 165 -11 22 -17 27 -18 66 -4 35 13 128 61 192 101 11 7 56 31 100
53 185 93 328 171 419 226 l96 59 -7 35 c-5 19 -8 74 -8 121 0 82 2 91 44 174
26 50 69 114 103 151 62 69 71 99 47 161 -6 15 -17 47 -24 71 l-13 43 36 18
c21 10 73 24 117 31 44 7 125 23 180 36 134 31 247 54 320 63 33 5 132 20 220
34 88 14 230 33 315 42 85 9 211 23 280 32 86 12 205 17 378 18 229 1 254 -1
268 -17 25 -27 97 -33 152 -13 124 46 278 108 287 115 6 5 36 18 67 30 31 11
67 29 80 39 13 10 74 44 136 76 103 54 114 57 137 45 23 -12 34 -9 123 35 53
26 108 56 122 65 14 10 66 39 115 66 142 75 195 111 195 133 0 22 38 54 115
97 39 22 64 28 110 29 53 0 68 5 133 45 171 105 372 242 372 253 0 7 -7 23
-16 35 -9 13 -14 28 -11 35 2 7 50 41 106 76 l102 64 29 -22 c16 -11 32 -21
36 -21 21 0 308 256 354 316 40 51 42 57 36 102 l-6 48 67 59 c38 32 76 65 86
74 16 14 20 13 41 -14 21 -26 27 -28 47 -18 34 15 124 91 265 223 l123 115 1
51 c0 45 4 56 32 83 40 39 58 40 58 1 0 -22 5 -30 18 -30 24 0 142 110 298
277 70 76 184 197 253 268 135 140 217 240 227 279 8 33 -18 79 -85 152 -31
33 -76 86 -101 118 -96 123 -118 147 -158 177 -46 34 -45 34 -103 -19 -30 -26
-47 -22 -83 17 -22 25 -45 27 -72 6 -30 -22 -40 -18 -86 33 -149 166 -281 239
-477 263 -198 25 -364 -11 -606 -130 -321 -158 -609 -254 -870 -291 -78 -11
-113 -19 -300 -66 -149 -37 -422 -86 -605 -109 -126 -15 -324 -19 -370 -6 -16
4 -40 30 -67 71 -71 107 -98 123 -283 155 -91 16 -110 29 -110 75 0 30 -27 63
-71 86 -37 19 -67 13 -108 -22 -28 -23 -35 -25 -64 -15 -67 23 -157 66 -161
76 -8 22 22 44 141 103 260 131 406 251 478 395 38 77 43 118 19 175 -44 106
-157 155 -302 133 -136 -21 -255 -69 -457 -186 -183 -106 -338 -149 -540 -149
l-130 -1 -78 44 c-42 25 -77 48 -77 53 0 22 180 215 341 364 91 84 98 129 31
201 -42 45 -117 64 -249 65 -79 0 -129 -5 -185 -20 -89 -24 -338 -67 -483 -83
-55 -6 -120 -14 -145 -19 -28 -5 -49 -5 -57 2 -7 5 -33 46 -59 91 -98 168
-178 255 -326 353 -67 45 -72 52 -110 132 -21 47 -69 131 -105 186 -37 56 -89
151 -116 211 -64 145 -146 298 -213 396 -30 43 -54 81 -54 84 0 3 -24 35 -52
71 -58 71 -159 151 -224 177 -91 35 -272 55 -369 41z m2609 -1783 c3 -4 -44
-54 -105 -111 -61 -57 -142 -143 -181 -191 -39 -49 -75 -89 -79 -89 -5 0 -53
33 -106 73 -54 41 -149 104 -211 141 -62 37 -110 72 -107 77 4 5 21 9 38 9 72
1 286 36 412 68 44 11 94 23 110 25 58 8 224 7 229 -2z m1193 -393 c46 -17 43
-43 -11 -115 -45 -59 -115 -120 -236 -203 -85 -60 -217 -130 -225 -122 -4 4
-13 22 -21 40 -18 43 -64 62 -155 62 -62 0 -80 -5 -144 -37 l-73 -36 -63 39
c-34 21 -63 43 -63 49 -1 5 21 13 48 18 64 10 211 74 461 198 164 82 214 102
280 114 85 15 148 13 202 -7z m2948 -2017 c0 -20 -83 -83 -104 -79 -29 6 -20
33 22 65 43 33 82 39 82 14z"/>
</g>
</svg>
